HIERARCHY
ROOT Hips
{
	OFFSET -0.001795 -0.223333 0.028219
	CHANNELS 6 Xposition Yposition Zposition Zrotation Yrotation Xrotation 
	JOINT LeftUpLeg
	{
		OFFSET 0.069520 -0.091406 -0.006815
		CHANNELS 3 Zrotation Yrotation Xrotation
		JOINT LeftLeg
		{
			OFFSET 0.034277 -0.375199 -0.004496
			CHANNELS 3 Zrotation Yrotation Xrotation
			JOINT LeftFoot
			{
				OFFSET -0.013596 -0.397961 -0.043693
				CHANNELS 3 Zrotation Yrotation Xrotation
				JOINT LeftToe
				{
					OFFSET 0.026358 -0.055791 0.119288
					CHANNELS 3 Zrotation Yrotation Xrotation
					End Site
					{
						OFFSET 0.000000 0.000000 0.000000
					}
				}
			}
		}
	}
	JOINT RightUpLeg
	{
		OFFSET -0.067670 -0.090522 -0.004320
		CHANNELS 3 Zrotation Yrotation Xrotation
		JOINT RightLeg
		{
			OFFSET -0.038290 -0.382569 -0.008850
			CHANNELS 3 Zrotation Yrotation Xrotation
			JOINT RightFoot
			{
				OFFSET 0.015774 -0.398415 -0.042312
				CHANNELS 3 Zrotation Yrotation Xrotation
				JOINT RightToe
				{
					OFFSET -0.025372 -0.048144 0.123348
					CHANNELS 3 Zrotation Yrotation Xrotation
					End Site
					{
						OFFSET 0.000000 0.000000 0.000000
					}
				}
			}
		}
	}
	JOINT Spine
	{
		OFFSET -0.002533 0.108963 -0.026696
		CHANNELS 3 Zrotation Yrotation Xrotation
		JOINT Spine1
		{
			OFFSET 0.005487 0.135180 0.001092
			CHANNELS 3 Zrotation Yrotation Xrotation
			JOINT Spine2
			{
				OFFSET 0.001457 0.052922 0.025425
				CHANNELS 3 Zrotation Yrotation Xrotation
				JOINT Neck
				{
					OFFSET -0.002778 0.213870 -0.042857
					CHANNELS 3 Zrotation Yrotation Xrotation
					JOINT Head
					{
						OFFSET 0.005152 0.064970 0.051349
						CHANNELS 3 Zrotation Yrotation Xrotation
						End Site
						{
							OFFSET 0.000000 0.000000 0.000000
						}
					}
				}
				JOINT LeftShoulder
				{
					OFFSET 0.078845 0.121749 -0.034090
					CHANNELS 3 Zrotation Yrotation Xrotation
					JOINT LeftArm
					{
						OFFSET 0.090977 0.030469 -0.008868
						CHANNELS 3 Zrotation Yrotation Xrotation
						JOINT LeftForeArm
						{
							OFFSET 0.259612 -0.012772 -0.027456
							CHANNELS 3 Zrotation Yrotation Xrotation
							JOINT LeftHand
							{
								OFFSET 0.249234 0.008986 -0.001171
								CHANNELS 3 Zrotation Yrotation Xrotation
								End Site
								{
									OFFSET 0.000000 0.000000 0.000000
								}
							}
						}
					}
				}
				JOINT RightShoulder
				{
					OFFSET -0.081759 0.118833 -0.038615
					CHANNELS 3 Zrotation Yrotation Xrotation
					JOINT RightArm
					{
						OFFSET -0.096012 0.032551 -0.009143
						CHANNELS 3 Zrotation Yrotation Xrotation
						JOINT RightForeArm
						{
							OFFSET -0.253742 -0.013329 -0.021401
							CHANNELS 3 Zrotation Yrotation Xrotation
							JOINT RightHand
							{
								OFFSET -0.255298 0.007772 -0.005559
								CHANNELS 3 Zrotation Yrotation Xrotation
								End Site
								{
									OFFSET 0.000000 0.000000 0.000000
								}
							}
						}
					}
				}
			}
		}
	}
}
MOTION
Frames: 11
Frame Time: 0.050000
-0.002749 0.807215 0.093208 -0.887014 44.158726 -9.265146 22.303414 -2.688786 -22.309888 -15.404166 -3.670599 47.387415 -0.024800 -1.574121 -1.297509 0.000000 0.000000 0.000000 -22.142786 -6.023636 -10.089466 -2.668200 -10.570062 56.008999 -3.654871 -9.169542 14.152757 0.000000 0.000000 0.000000 -3.843861 -1.983663 21.007023 5.098412 0.399201 -25.685181 1.650142 -1.965672 20.078599 -2.600934 4.941799 -9.361531 0.000000 0.000000 0.000000 -14.969290 -18.382201 2.293606 -64.306405 -51.565574 19.229512 142.401163 -56.662172 -119.035722 0.000000 0.000000 0.000000 0.730696 18.076388 7.442771 49.437875 34.648143 10.762509 -124.903628 26.634985 -25.702454 0.000000 0.000000 0.000000 
-0.014630 0.827632 0.084083 -0.382203 42.500729 -7.608315 21.765342 -2.468837 -20.121101 -12.872845 -3.038940 40.598721 -1.170400 -1.944263 1.115341 0.000000 0.000000 0.000000 -21.958031 -5.578214 -9.786654 2.391731 -11.449750 49.604065 -7.187006 -15.460986 11.959264 0.000000 0.000000 0.000000 -3.132109 -1.721208 19.525112 7.069413 -0.103826 -24.682164 0.838627 -2.758728 19.115241 -2.028561 4.518176 -10.824342 0.000000 0.000000 0.000000 -13.748351 -18.327961 2.891559 -63.144765 -55.175969 21.113969 136.126762 -51.099592 -102.586462 0.000000 0.000000 0.000000 -0.340924 19.959106 7.753414 48.466999 38.421065 12.448567 -129.819520 24.837739 -26.606182 0.000000 0.000000 0.000000 
-0.028652 0.846555 0.075413 0.106031 39.916248 -6.169016 22.033487 -2.293871 -16.525983 -11.828929 -1.675997 32.667819 -1.434855 -1.231406 2.449057 0.000000 0.000000 0.000000 -21.067581 -4.922285 -10.069211 5.292140 -10.826585 44.249635 -8.431780 -18.205555 9.631996 0.000000 0.000000 0.000000 -2.466950 -1.655814 19.196733 9.060426 -0.714523 -24.677507 0.304479 -3.018794 19.399657 -1.793506 4.259188 -11.454711 0.000000 0.000000 0.000000 -12.455786 -18.521205 3.621393 -56.206816 -58.725049 19.977846 128.230458 -46.519512 -85.180304 0.000000 0.000000 0.000000 -0.787023 19.965244 7.522576 49.588108 42.603182 14.989486 -133.562504 24.750350 -29.574266 0.000000 0.000000 0.000000 
-0.042933 0.860316 0.066823 -0.037334 37.392108 -5.062570 22.095698 -2.173444 -14.450957 -10.911520 -0.816678 26.367099 -0.829501 2.801485 6.028703 0.000000 0.000000 0.000000 -19.932750 -4.241129 -10.383485 7.647437 -10.004060 39.235203 -8.802936 -19.586911 7.159353 0.000000 0.000000 0.000000 -2.217036 -1.370266 17.721611 11.836530 -1.830469 -21.731980 -0.495374 -2.374658 17.874157 -1.279585 3.417995 -9.603034 0.000000 0.000000 0.000000 -10.560588 -18.941994 4.279101 -49.409405 -59.374269 17.002282 122.197451 -41.830693 -71.715580 0.000000 0.000000 0.000000 0.580161 20.281175 8.132692 48.709480 42.312769 14.230323 -137.003549 25.285678 -34.192258 0.000000 0.000000 0.000000 
-0.055543 0.868595 0.057333 0.378486 36.269865 -4.560812 21.713607 -2.084073 -13.422505 -11.367227 -0.491419 24.955274 0.985811 4.988073 4.548628 0.000000 0.000000 0.000000 -19.280878 -3.876138 -10.248402 8.411422 -9.109055 35.900155 -9.256403 -20.845213 6.210917 0.000000 0.000000 0.000000 -1.325740 -1.488730 17.912192 11.672119 -1.868265 -21.137713 -0.053368 -3.061359 17.920283 -1.567585 3.569702 -10.040380 0.000000 0.000000 0.000000 -10.057329 -18.567811 4.460477 -47.344485 -58.257088 15.612091 121.774484 -41.948101 -70.851993 0.000000 0.000000 0.000000 0.181758 20.169774 7.866996 50.121215 42.241951 14.640402 -137.621620 26.841141 -38.408652 0.000000 0.000000 0.000000 
-0.065498 0.872493 0.046571 1.180430 35.704567 -3.576487 20.582150 -1.946625 -13.516067 -11.486477 -0.328697 23.606777 2.609645 7.747721 4.436501 0.000000 0.000000 0.000000 -19.478552 -3.856056 -10.235633 8.977653 -8.318107 32.823988 -9.339768 -21.413517 4.913544 0.000000 0.000000 0.000000 -0.429690 -1.588492 17.871196 12.155279 -2.228791 -19.472320 -0.373977 -1.992807 17.013670 -0.743668 2.854992 -9.134940 0.000000 0.000000 0.000000 -9.498784 -19.046507 4.623240 -46.914238 -58.141450 15.295296 122.210260 -42.181460 -71.990017 0.000000 0.000000 0.000000 0.255109 19.629147 7.755676 50.578359 41.624773 14.633619 -137.340772 29.344849 -42.449998 0.000000 0.000000 0.000000 
-0.073522 0.873761 0.035659 1.661546 35.642311 -3.589459 19.429175 -1.827307 -13.605162 -10.144931 -0.522643 22.865401 2.264788 7.516392 4.993272 0.000000 0.000000 0.000000 -19.731870 -3.991267 -10.656628 8.925075 -8.111732 32.435495 -9.315302 -21.335992 4.884196 0.000000 0.000000 0.000000 -0.175654 -1.664119 18.136651 12.423706 -2.463534 -18.420652 -0.334878 -2.251582 16.315786 -1.199556 3.003382 -8.288573 0.000000 0.000000 0.000000 -10.077734 -18.946804 4.589339 -46.379733 -57.080932 14.866928 123.055653 -42.483912 -73.315626 0.000000 0.000000 0.000000 -0.280670 20.815816 8.020623 50.867378 40.329362 14.065024 -135.774787 31.551574 -45.355021 0.000000 0.000000 0.000000 
-0.079659 0.874739 0.027094 2.127303 35.000979 -3.304658 19.229483 -1.760595 -13.451832 -10.405000 -0.320527 21.674152 2.212755 7.878172 5.759051 0.000000 0.000000 0.000000 -19.741986 -4.002504 -11.296245 8.614734 -7.601563 31.855944 -9.206503 -21.196336 4.531162 0.000000 0.000000 0.000000 -0.369802 -1.569015 17.857227 12.691845 -2.632744 -18.094156 -0.092399 -2.507001 16.674195 -0.953132 2.527276 -6.777736 0.000000 0.000000 0.000000 -10.010781 -18.247645 4.434400 -47.681319 -57.527247 15.694308 124.695850 -42.551038 -74.779714 0.000000 0.000000 0.000000 -0.886879 21.270994 7.946617 50.625762 40.057773 13.748873 -133.295984 33.605975 -46.815117 0.000000 0.000000 0.000000 
-0.084113 0.877743 0.022126 1.480620 34.056694 -3.703164 19.843925 -1.756689 -12.461492 -10.182586 -0.137512 19.784566 2.179619 8.243744 6.561052 0.000000 0.000000 0.000000 -18.844747 -3.666668 -11.585085 8.446359 -7.360145 31.820993 -8.298344 -19.597731 3.313930 0.000000 0.000000 0.000000 -0.604661 -1.401806 17.110997 13.604569 -3.196207 -16.922199 -0.559735 -2.519622 15.854976 -1.213587 2.356381 -5.017375 0.000000 0.000000 0.000000 -9.848003 -16.854982 3.981737 -48.491292 -56.896235 15.941715 126.396098 -43.546481 -77.920340 0.000000 0.000000 0.000000 -0.746536 21.946003 8.234318 50.097561 39.779535 13.319488 -132.766021 35.600439 -50.321297 0.000000 0.000000 0.000000 
-0.086571 0.883013 0.020076 1.071328 32.046748 -3.778637 19.953759 -1.680905 -10.809626 -9.450915 0.018423 17.543148 2.421257 9.249471 7.869743 0.000000 0.000000 0.000000 -18.133972 -3.238825 -11.589604 8.249001 -6.653469 30.824645 -6.932189 -16.832613 2.128457 0.000000 0.000000 0.000000 -1.499141 -1.062435 15.753232 14.394002 -3.767797 -15.805836 -0.613131 -2.361598 15.834872 0.081962 0.999480 -3.704209 0.000000 0.000000 0.000000 -9.345160 -16.342913 3.995129 -49.194127 -55.710325 15.806246 126.689692 -44.210548 -78.767167 0.000000 0.000000 0.000000 -0.741890 21.778564 8.113814 49.837500 40.335236 13.363997 -133.141056 38.023570 -55.464217 0.000000 0.000000 0.000000 
-0.087616 0.886966 0.018782 0.468691 30.938487 -3.813829 20.312285 -1.665103 -10.309742 -9.030572 0.067996 16.636018 2.537914 9.905504 8.929689 0.000000 0.000000 0.000000 -17.462662 -2.951879 -11.673695 7.689044 -6.140774 30.541932 -5.410376 -13.402909 1.277631 0.000000 0.000000 0.000000 -1.898085 -0.825631 14.188522 14.384673 -3.682001 -16.459403 -0.693831 -2.492408 17.481032 0.075729 1.208377 -4.773329 0.000000 0.000000 0.000000 -9.262609 -15.509632 3.755039 -52.095620 -55.686093 16.955150 127.326230 -45.827524 -81.183908 0.000000 0.000000 0.000000 -0.563125 20.914428 7.798634 49.440267 39.996445 12.828441 -132.790552 38.789716 -56.200652 0.000000 0.000000 0.000000 
